# xmcd
#
# Track frame offsets:
#	150
#	26623
#	50863
#	83793
#	103820
#	132798
#	168043
#
# Disc length: 2650 seconds
#
# Revision: 0
# Processed by: cddbd v1.5.2PL0 Copyright (c) Steve Scherf et al.
# Submitted via: dBpowerAMP V4.0
#
DISCID=540a5807
DTITLE=Various Artist - Country Music - The Midnight Ramblers
DYEAR=1900
DGENRE=Country
TTITLE0=Country Goes On
TTITLE1=And The Devil Went Down To The Country Music
TTITLE2=Sweet Memories
TTITLE3=Duelin' Songs
TTITLE4=Life In The Good Western Days
TTITLE5=I Can't Stop Singing These Songs
TTITLE6=Country Music Knockin'  Your Door
EXTD=
EXTT0=
EXTT1=
EXTT2=
EXTT3=
EXTT4=
EXTT5=
EXTT6=
PLAYORDER=
